<?xml version="1.0" encoding="UTF-8" ?>
<!DOCTYPE svg PUBLIC "-//W3C//DTD SVG 1.1//EN" "http://www.w3.org/Graphics/SVG/1.1/DTD/svg11.dtd">
<svg width="200pt" height="200pt" viewBox="0 0 200 200" version="1.1" xmlns="http://www.w3.org/2000/svg">
<path fill="#ffffff" d=" M 0.00 0.00 L 200.00 0.00 L 200.00 200.00 L 0.00 200.00 L 0.00 0.00 Z" />
<path fill="#01a6de" d=" M 147.24 8.28 C 149.39 6.94 152.97 8.14 152.67 11.01 C 152.79 23.00 152.71 35.00 152.71 47.00 C 152.81 50.94 149.64 54.16 146.14 55.47 C 130.85 62.01 115.60 68.63 100.30 75.12 C 85.27 81.50 70.30 88.00 55.30 94.45 C 51.90 95.96 48.43 97.43 44.69 97.83 C 44.06 96.28 43.44 94.69 43.57 92.99 C 43.65 81.31 43.59 69.62 43.59 57.94 C 43.69 54.23 46.74 51.32 50.02 50.03 C 82.43 36.13 114.81 22.14 147.24 8.28 Z" />
<path fill="#004a71" d=" M 55.30 94.45 C 70.30 88.00 85.27 81.50 100.30 75.12 C 104.42 76.98 108.59 78.71 112.73 80.52 C 97.55 85.26 81.90 88.34 66.58 92.57 C 62.91 93.67 59.11 94.20 55.30 94.45 Z" />
<path fill="#005e91" d=" M 66.58 92.57 C 81.90 88.34 97.55 85.26 112.73 80.52 C 114.21 81.15 115.69 81.80 117.17 82.45 C 117.14 92.02 117.09 101.58 117.30 111.14 C 110.25 114.10 103.25 117.15 96.19 120.10 C 78.99 112.75 61.74 105.51 44.69 97.83 C 48.43 97.43 51.90 95.96 55.30 94.45 C 59.11 94.20 62.91 93.67 66.58 92.57 Z" />
<path fill="#d55610" d=" M 117.17 82.45 C 128.49 87.45 139.96 92.10 151.21 97.26 C 145.80 98.19 141.08 101.09 136.08 103.15 C 129.81 105.81 123.58 108.54 117.30 111.14 C 117.09 101.58 117.14 92.02 117.17 82.45 Z" />
<path fill="#f29400" d=" M 136.08 103.15 C 141.08 101.09 145.80 98.19 151.21 97.26 C 152.01 98.68 152.88 100.17 152.72 101.88 C 152.73 113.27 152.71 124.65 152.72 136.04 C 153.04 139.90 150.41 143.51 146.90 144.93 C 114.96 158.69 82.99 172.37 51.06 186.17 C 49.16 186.95 47.05 187.93 44.99 187.13 C 43.18 186.03 43.62 183.77 43.51 181.99 C 43.60 170.66 43.48 159.32 43.56 147.99 C 43.51 144.22 46.57 141.19 49.89 139.89 C 65.33 133.32 80.68 126.50 96.19 120.10 C 103.25 117.15 110.25 114.10 117.30 111.14 C 123.58 108.54 129.81 105.81 136.08 103.15 Z" />
</svg>
